<svg xmlns="http://www.w3.org/2000/svg" width="300" height="361.06" xmlns:v="https://vecta.io/nano"><style>.A{isolation:isolate}.C{mix-blend-mode:multiply}</style><defs><linearGradient id="A" x1="91.69" y1="213.52" x2="455.68" y2="-138.46" gradientUnits="userSpaceOnUse"><stop offset="0" stop-color="#032d42"/><stop offset=".11" stop-color="#033044"/><stop offset=".19" stop-color="#05394d"/><stop offset=".26" stop-color="#09495d"/><stop offset=".33" stop-color="#0e6072"/><stop offset=".39" stop-color="#157e8e"/><stop offset=".45" stop-color="#1da1af"/><stop offset=".49" stop-color="#24c1cd"/></linearGradient><linearGradient id="B" x1="11.99" y1="276.55" x2="288" y2="276.55" gradientUnits="userSpaceOnUse"><stop offset="0"/><stop offset="1" stop-opacity="0"/></linearGradient><linearGradient id="C" x1="0" y1="180.53" x2="300" y2="180.53" gradientUnits="userSpaceOnUse"><stop offset="0" stop-color="#009056"/><stop offset="1" stop-color="#85ec78"/></linearGradient></defs><g class="A"><path d="M141.44 13.58l-114 43.53A24 24 0 0 0 12 79.53v142.03c0 4.29 1.16 8.5 3.33 12.2 10.82 18.45 27.9 42.74 53.87 66.26a281.74 281.74 0 0 0 70.8 46.84 23.8 23.8 0 0 0 20.01 0c19.66-9.1 45.22-23.68 70.8-46.84 25.96-23.51 43.04-47.81 53.87-66.26 2.17-3.7 3.33-7.91 3.33-12.2V79.53a24 24 0 0 0-15.44-22.42L158.56 13.58c-5.51-2.11-11.61-2.11-17.12 0z" fill="url(#A)"/><g class="C" opacity=".2"><path d="M288 204.06v17.5c0 4.29-1.16 8.5-3.33 12.2-10.83 18.45-27.91 42.75-53.87 66.26a281.74 281.74 0 0 1-70.8 46.84 23.8 23.8 0 0 1-20.01 0 281.74 281.74 0 0 1-70.8-46.84c-25.96-23.51-43.04-47.81-53.87-66.26-2.17-3.7-3.33-7.91-3.33-12.2v-17.51C46.58 240.72 95.62 263.6 150 263.6s103.42-22.88 138-59.54z" fill="url(#B)"/></g><path d="M150 12a24.07 24.07 0 0 1 8.56 1.58l114 43.53A24 24 0 0 1 288 79.53v142.03c0 4.29-1.16 8.5-3.33 12.2-10.82 18.45-27.9 42.74-53.87 66.26a281.74 281.74 0 0 1-70.8 46.84c-3.17 1.47-6.59 2.2-10.01 2.2a23.82 23.82 0 0 1-10.01-2.2c-19.66-9.1-45.22-23.68-70.8-46.84-25.96-23.51-43.04-47.81-53.87-66.26-2.17-3.7-3.33-7.91-3.33-12.2V79.53a24 24 0 0 1 15.44-22.42l114.02-43.53A24.07 24.07 0 0 1 150 12m0-12c-4.41 0-8.73.8-12.84 2.37l-114 43.53C9.3 51.19 0 64.7 0 79.53v142.03c0 6.4 1.72 12.72 4.98 18.27a293.55 293.55 0 0 0 56.16 69.08 293.33 293.33 0 0 0 73.81 48.84 36 36 0 0 0 15.05 3.31c5.17 0 10.37-1.15 15.05-3.31a293.33 293.33 0 0 0 73.81-48.84c22.14-20.05 41.03-43.29 56.16-69.08 3.26-5.55 4.98-11.87 4.98-18.27V79.53c0-14.83-9.31-28.34-23.16-33.63l-114-43.53C158.73.8 154.4 0 150 0h0z" fill="url(#C)"/><g><g fill="none" stroke-linejoin="round" stroke-width="6.46" stroke="#61d94f"><path d="M144.41,160.15c-2.31-19.4-14.06-34.17-28.21-34.17v34.17h28.21Z"/><path d="M116.2 208.31c15.81 0 28.63-18.43 28.63-41.16 0-2.39-.15-4.72-.42-6.99H87.99c-.27 2.27-.42 4.61-.42 6.99 0 22.73 12.82 41.16 28.63 41.16z"/><g stroke-linecap="round"><path d="M203.23 119.31l-11.83-17.22-1.41 9.31c-1.6 11.96-2.4 17.94-1.35 20.88 3.28 9.23 15.8 5.75 25.13 15.13 10.01 10.07 13.71 32.27 1.89 45.66-7.52 8.52-19.63 12.33-30.53 10-12.53-2.68-19.34-12.72-20.11-13.89-14.49-22 9.88-45.93-2.91-67.34-7.85-13.15-27.48-21.6-37.74-15.13-7.12 4.49-8.03 15.09-8.17 19.27"/><path d="M176.21 113.1l15.2-11.01"/></g></g><path d="M203.9 166.96a1.35 1.35 0 0 0-.53-.53 1.41 1.41 0 0 0-.72-.19h-9.52l2.48-11.72c.06-.31 0-.63-.16-.9s-.41-.48-.71-.59a1.48 1.48 0 0 0-.93-.06c-.31.08-.58.26-.78.51l-14.05 18.64c-.13.19-.21.42-.23.65a1.24 1.24 0 0 0 .13.68 1.35 1.35 0 0 0 .53.53 1.41 1.41 0 0 0 .72.19h9.52l-2.48 11.72c-.07.32-.01.66.15.95s.44.5.75.6c.18.07.37.1.56.11a1.43 1.43 0 0 0 .64-.15c.2-.1.37-.24.51-.41l14.05-18.64a1.29 1.29 0 0 0 .23-.68c.01-.24-.04-.49-.16-.7z" fill="#fff"/><path d="M116.2,160.15v-34.17c-14.15,0-25.9,14.77-28.21,34.17h28.21Z" stroke="#fff" fill="none" stroke-linejoin="round" stroke-width="6.46"/></g><path d="M12 79.53l2.07 136.53c-.02 4.8-.15 10.17 2.1 14.53 26.87 46.47 67.76 84.65 115.57 108.95 5.83 2.73 11.61 6.63 18.26 6.52 6.65.1 12.43-3.79 18.26-6.52 18.55-9.39 35.99-20.92 52.02-34.16 24.75-20.41 45.9-45.17 62.42-72.68a22.06 22.06 0 0 0 3.18-11.39l.04-5.25.61-52.51L288 79.53l.79 42.01 1.33 99.77c.17 5.66-1.85 11.22-4.91 15.93-26.78 45.76-67 83.52-114.26 107.58-6.64 3.25-13.29 7.4-20.95 7.23-7.67.16-14.31-3.98-20.95-7.24-47.26-24.05-87.47-61.83-114.25-107.58-3.04-4.71-5.1-10.27-4.91-15.93L12 79.51h0z" fill="#fff"/><g opacity=".2"><path d="M251.81,61.24l15.7,6.34c6.44,2.6,10.7,8.79,10.84,15.73l.41,20.64c.98,4.37-4.98,6.68-7.2,2.78l-8.74-22.14c-.26-.45-.6-.85-1.01-1.16l-13.02-15.24c-3.22-2.47-.99-7.6,3.02-6.94Z" fill="#fff"/></g><g><path d="M115.44 257.98l-1.51-4.54h-10.04l-1.51 4.54h-5.36l8.82-25.2H112l8.85 25.2h-5.4zm-9.97-9.18h6.91l-3.46-10.29-3.46 10.29zm30.74-16.02h4.64v25.2h-4.64v-2.12c-1.37 1.76-3.31 2.63-5.83 2.63s-4.5-.9-6.23-2.74c-1.69-1.84-2.56-4.1-2.56-6.77s.86-4.9 2.56-6.73c1.73-1.84 3.82-2.77 6.23-2.77s4.46.86 5.83 2.63v-9.32zm-4.97 21.27c1.44 0 2.63-.47 3.56-1.4.94-.97 1.4-2.2 1.4-3.67s-.47-2.7-1.4-3.64c-.94-.97-2.12-1.44-3.56-1.44s-2.63.47-3.6 1.44c-.94.94-1.4 2.16-1.4 3.64s.47 2.7 1.4 3.67c.97.94 2.16 1.4 3.6 1.4zm40.57-7.16v11.09h-4.64v-10.76c0-2.16-1.12-3.42-3.02-3.42-2.12 0-3.35 1.44-3.35 4.07v10.11h-4.64v-10.76c0-2.16-1.12-3.42-3.02-3.42-2.05 0-3.38 1.44-3.38 4.07v10.11h-4.64v-18h4.64v1.91c1.08-1.62 2.74-2.41 5-2.41s3.85.86 4.9 2.59c1.19-1.73 2.99-2.59 5.36-2.59 4.14 0 6.8 2.92 6.8 7.42zm3.43-11.92c0-1.55 1.3-2.88 2.84-2.88s2.88 1.33 2.88 2.88-1.3 2.84-2.88 2.84-2.84-1.3-2.84-2.84zm.54 23v-18h4.64v18h-4.64zm23.76-16.52c1.3 1.33 1.94 3.13 1.94 5.47v11.05h-4.64V247.5c0-2.41-1.4-3.71-3.56-3.71-2.41 0-3.96 1.48-3.96 4.46v9.72h-4.64v-18h4.64v2.02c1.12-1.69 2.92-2.52 5.36-2.52 1.98 0 3.6.65 4.86 1.98z" fill="#61d94f"/><g><g fill="#fff"><path d="M113.87 56.79c-1.51 0-2.8.54-3.84 1.38v-1.24h-3.5v13.63h3.64v-8.72c.5-.7 1.76-1.69 3.31-1.69.55 0 1.05.04 1.46.22v-3.5a6.35 6.35 0 0 0-1.07-.09m-31.74 9.63c.92.84 2.35 1.35 3.73 1.35.98 0 1.74-.48 1.74-1.15 0-2.05-6.58-1.32-6.58-5.71 0-2.61 2.52-4.25 5.21-4.25 1.76 0 3.7.68 4.59 1.38l-1.71 2.64c-.7-.51-1.62-.93-2.61-.93s-1.85.39-1.85 1.1c0 1.77 6.58 1.07 6.58 5.79 0 2.62-2.55 4.22-5.41 4.22-1.88 0-3.86-.65-5.46-1.83l1.76-2.62z"/><path d="M95.65 62c.17-1.24 1.4-2.39 2.91-2.39s2.58 1.18 2.69 2.39h-5.6zm9.33 1.63c0-3.8-2.66-6.97-6.41-6.97-4.03 0-6.61 3.32-6.61 7.11 0 4.27 3.05 7.08 7.11 7.08 2.1 0 4.26-.87 5.57-2.45l-2.07-2.08c-.64.7-1.88 1.57-3.42 1.57-1.93 0-3.47-1.32-3.67-3.23h9.41c.06-.31.08-.67.08-1.04m18.65 1.64l3.73-8.32h3.78l-6.25 13.63h-2.52l-6.25-13.63h3.79l3.72 8.32zm10.57-14.73c1.32 0 2.38 1.01 2.38 2.33s-1.07 2.33-2.38 2.33-2.38-1.01-2.38-2.33 1.06-2.33 2.38-2.33m-1.82 6.41h3.64v13.63h-3.64zm18.69 10.85c-1.6 2.14-3.61 3.06-6.16 3.06-4.2 0-7.28-3.15-7.28-7.08s3.17-7.11 7.31-7.11c2.35 0 4.45 1.1 5.71 2.73l-2.58 2.28c-.73-.96-1.82-1.63-3.14-1.63-2.1 0-3.67 1.66-3.67 3.74s1.54 3.71 3.75 3.71c1.48 0 2.66-.9 3.25-1.8l2.8 2.11zM160.9 62a2.71 2.71 0 0 0-2.69-2.39c-1.49 0-2.75 1.15-2.91 2.39h5.6zm3.39 6.41c-1.32 1.57-3.47 2.45-5.57 2.45-4.06 0-7.11-2.81-7.11-7.08 0-3.8 2.58-7.11 6.61-7.11 3.75 0 6.41 3.18 6.41 6.97 0 .37-.03.73-.09 1.04h-9.41c.2 1.91 1.74 3.23 3.67 3.23 1.54 0 2.77-.87 3.42-1.57l2.07 2.08zm1.78 2.16V56.94h3.5v1.1c1.04-.84 2.33-1.38 3.84-1.38a6.11 6.11 0 0 1 4.71 2.19c.9 1.07 1.4 2.45 1.4 4.78v6.94h-3.64v-7.22c0-1.35-.31-2.05-.81-2.56-.48-.48-1.2-.76-2.05-.76-1.54 0-2.8.98-3.31 1.69v8.86h-3.64z"/></g><path d="M188.85 68.61c-2.36 0-3.97-1.77-3.97-3.97s1.61-4 3.97-4 3.97 1.8 3.97 4-1.61 3.97-3.97 3.97m.05-11.95c-4.35-.02-7.95 3.53-7.99 7.9a7.97 7.97 0 0 0 2.49 5.87 1.58 1.58 0 0 0 2.05.11c.9-.7 2.06-1.13 3.4-1.13s2.49.42 3.4 1.13c.62.48 1.49.42 2.06-.12 1.53-1.45 2.48-3.51 2.48-5.79 0-4.38-3.53-7.94-7.89-7.97" fill="#61d94f"/><g fill="#fff"><path d="M204 70.57h-2.72l-5.4-13.63h3.63l2.97 7.79 2.9-7.79h3.04l2.88 7.79 3-7.79h3.63l-5.41 13.63h-2.71l-2.91-7.76-2.9 7.76zm13.67-1.77h.37c.14 0 .25-.12.25-.26s-.11-.27-.25-.27h-.37v.53zm.31.23h-.31v.58h-.26v-1.58h.63a.51.51 0 0 1 .51.51c0 .2-.13.38-.31.46l.36.61h-.28l-.33-.58z"/><path d="M217.94 67.15a1.7 1.7 0 1 0 0 3.4 1.7 1.7 0 1 0 0-3.4m0 .23c.81 0 1.47.66 1.47 1.47s-.66 1.46-1.47 1.46a1.46 1.46 0 0 1-1.46-1.46c0-.8.66-1.47 1.46-1.47"/></g></g></g></g></svg>